<?xml version="1.0" encoding="utf-8"?>
<!-- Generator: Adobe Illustrator 26.0.1, SVG Export Plug-In . SVG Version: 6.00 Build 0)  -->
<svg version="1.1" id="Layer_1" xmlns="http://www.w3.org/2000/svg" xmlns:xlink="http://www.w3.org/1999/xlink" x="0px" y="0px"
	 viewBox="0 0 140 20" style="enable-background:new 0 0 140 20;" xml:space="preserve">
<style type="text/css">
	.st0{clip-path:url(#SVGID_00000116944944784145419710000005815231450008329867_);}
	.st1{fill:#942E16;fill-opacity:0.5;}
	.st2{fill:#942E16;}
</style>
<g>
	<defs>
		<rect id="SVGID_1_" width="140" height="20"/>
	</defs>
	<clipPath id="SVGID_00000103254795004216056920000010897803528808414109_">
		<use xlink:href="#SVGID_1_"  style="overflow:visible;"/>
	</clipPath>
	<g style="clip-path:url(#SVGID_00000103254795004216056920000010897803528808414109_);">
		<path class="st1" d="M5,3.3v12.8h3.5V3.3h4.7V0.4H0.3v2.9H5z"/>
		<path class="st1" d="M14.6,0.4v15.7h3.1v-6c0-1.2,0.2-2,0.6-2.5c0.4-0.5,1-0.8,1.8-0.8c0.7,0,1.3,0.2,1.6,0.7
			C22,8,22.2,8.7,22.2,9.7v6.4h3.1v-7c0-0.7-0.1-1.3-0.2-1.9c-0.1-0.6-0.3-1.1-0.6-1.5c-0.3-0.4-0.7-0.7-1.3-0.9
			c-0.5-0.2-1.2-0.4-2-0.4c-0.6,0-1.2,0.2-1.8,0.5c-0.6,0.3-1.1,0.8-1.5,1.4h-0.1V0.4H14.6z"/>
		<path class="st1" d="M35.3,9.2h-5.1c0-0.2,0.1-0.5,0.1-0.7c0.1-0.3,0.2-0.5,0.4-0.8C31,7.4,31.3,7.2,31.6,7
			c0.3-0.2,0.8-0.3,1.3-0.3c0.8,0,1.3,0.2,1.7,0.6C34.9,7.8,35.2,8.4,35.3,9.2z M30.3,11.2h8.2c0.1-0.9,0-1.7-0.2-2.5
			c-0.2-0.8-0.5-1.5-1-2.2c-0.5-0.6-1-1.1-1.8-1.5c-0.7-0.4-1.6-0.6-2.5-0.6c-0.9,0-1.7,0.2-2.4,0.5c-0.7,0.3-1.3,0.7-1.8,1.3
			c-0.5,0.5-0.9,1.2-1.2,1.9c-0.3,0.7-0.4,1.5-0.4,2.4c0,0.9,0.1,1.7,0.4,2.4c0.3,0.7,0.7,1.4,1.2,1.9c0.5,0.5,1.1,0.9,1.8,1.2
			c0.7,0.3,1.5,0.4,2.4,0.4c1.3,0,2.4-0.3,3.3-0.9c0.9-0.6,1.6-1.6,2-2.9h-2.8c-0.1,0.4-0.4,0.7-0.8,1c-0.5,0.3-1,0.5-1.6,0.5
			c-0.9,0-1.6-0.2-2-0.7C30.6,12.9,30.3,12.2,30.3,11.2z"/>
		<path class="st2" d="M51,5.7h3.3c-0.1-0.9-0.4-1.7-0.7-2.4s-0.9-1.3-1.5-1.8C51.5,1,50.8,0.6,50,0.4C49.2,0.1,48.4,0,47.6,0
			c-1.2,0-2.3,0.2-3.3,0.6c-1,0.4-1.8,1-2.4,1.8S40.7,4,40.4,5c-0.4,1-0.5,2.1-0.5,3.3c0,1.1,0.2,2.2,0.5,3.2c0.4,1,0.9,1.8,1.5,2.6
			s1.5,1.3,2.4,1.7c1,0.4,2.1,0.6,3.3,0.6c1,0,1.9-0.1,2.7-0.4c0.8-0.3,1.5-0.7,2.1-1.3c0.6-0.6,1.1-1.2,1.5-2
			c0.4-0.8,0.6-1.7,0.7-2.7h-3.3c-0.1,1.1-0.5,1.9-1.1,2.6c-0.6,0.6-1.4,1-2.5,1c-0.8,0-1.4-0.1-2-0.4c-0.5-0.3-1-0.7-1.3-1.2
			c-0.3-0.5-0.6-1.1-0.7-1.7c-0.1-0.6-0.2-1.3-0.2-1.9c0-0.7,0.1-1.4,0.2-2c0.2-0.6,0.4-1.2,0.7-1.7c0.3-0.5,0.8-0.9,1.3-1.2
			c0.5-0.3,1.2-0.5,2-0.5c0.4,0,0.8,0.1,1.2,0.2c0.4,0.1,0.7,0.3,1.1,0.6c0.3,0.2,0.6,0.5,0.8,0.9C50.8,4.9,50.9,5.3,51,5.7z"/>
		<path class="st2" d="M59.3,10.4c0-0.5,0-0.9,0.1-1.3c0.1-0.4,0.2-0.8,0.4-1.2c0.2-0.3,0.5-0.6,0.9-0.8C61,6.9,61.5,6.8,62,6.8
			s1,0.1,1.3,0.3c0.4,0.2,0.7,0.5,0.9,0.8c0.2,0.3,0.4,0.7,0.5,1.2c0.1,0.4,0.1,0.9,0.1,1.3c0,0.5,0,0.9-0.1,1.3
			c-0.1,0.4-0.2,0.8-0.5,1.2c-0.2,0.3-0.5,0.6-0.9,0.8C63,13.9,62.5,14,62,14s-1-0.1-1.3-0.3c-0.4-0.2-0.6-0.5-0.9-0.8
			c-0.2-0.4-0.4-0.7-0.4-1.2C59.3,11.3,59.3,10.9,59.3,10.4z M56.1,10.4c0,0.9,0.1,1.7,0.4,2.5c0.3,0.7,0.7,1.4,1.2,1.9
			c0.5,0.5,1.1,0.9,1.8,1.2c0.7,0.3,1.5,0.4,2.4,0.4c0.9,0,1.7-0.1,2.4-0.4c0.7-0.3,1.4-0.7,1.9-1.2c0.5-0.5,0.9-1.2,1.2-1.9
			c0.3-0.7,0.4-1.6,0.4-2.5c0-0.9-0.1-1.7-0.4-2.5c-0.3-0.7-0.7-1.4-1.2-1.9c-0.5-0.5-1.1-0.9-1.9-1.2c-0.7-0.3-1.5-0.4-2.4-0.4
			c-0.9,0-1.7,0.1-2.4,0.4c-0.7,0.3-1.3,0.7-1.8,1.2c-0.5,0.5-0.9,1.1-1.2,1.9C56.3,8.7,56.1,9.5,56.1,10.4z"/>
		<path class="st2" d="M70,4.7v11.4h3.1V9.5c0-0.6,0.1-1,0.2-1.3c0.2-0.4,0.4-0.6,0.6-0.8C74.2,7.2,74.4,7,74.7,7
			c0.2-0.1,0.4-0.1,0.6-0.1c0.5,0,0.9,0.1,1.1,0.3c0.3,0.2,0.4,0.4,0.5,0.7c0.1,0.3,0.2,0.6,0.2,0.9c0,0.3,0,0.7,0,1v6.4h3.1V9.7
			c0-0.4,0-0.7,0.1-1c0.1-0.4,0.2-0.7,0.3-0.9c0.2-0.3,0.4-0.5,0.6-0.7c0.3-0.2,0.6-0.3,1.1-0.3c0.4,0,0.8,0.1,1,0.2
			c0.3,0.1,0.5,0.3,0.6,0.6c0.1,0.2,0.2,0.5,0.2,0.9c0,0.3,0,0.7,0,1.1v6.4h3.1V8.5c0-0.7-0.1-1.4-0.3-1.9c-0.2-0.5-0.5-1-0.9-1.3
			c-0.4-0.3-0.8-0.6-1.3-0.7c-0.5-0.1-1.1-0.2-1.7-0.2c-0.8,0-1.5,0.2-2.1,0.6c-0.6,0.4-1,0.8-1.4,1.3c-0.3-0.7-0.8-1.2-1.4-1.5
			c-0.6-0.3-1.2-0.4-2-0.4c-0.7,0-1.4,0.2-2,0.5c-0.6,0.3-1.1,0.8-1.5,1.4h0V4.7H70z"/>
		<path class="st2" d="M95.6,14c-0.5,0-0.9-0.1-1.3-0.3c-0.4-0.2-0.6-0.5-0.9-0.8c-0.2-0.3-0.4-0.7-0.5-1.2
			c-0.1-0.4-0.1-0.9-0.1-1.3c0-0.5,0-0.9,0.1-1.4c0.1-0.4,0.2-0.8,0.4-1.2c0.2-0.3,0.5-0.6,0.8-0.8c0.4-0.2,0.8-0.3,1.3-0.3
			c0.5,0,0.9,0.1,1.3,0.3c0.4,0.2,0.6,0.5,0.9,0.8c0.2,0.3,0.4,0.7,0.5,1.2c0.1,0.4,0.2,0.9,0.2,1.3c0,0.5,0,0.9-0.1,1.3
			c-0.1,0.4-0.2,0.8-0.5,1.2c-0.2,0.3-0.5,0.6-0.8,0.8C96.6,13.9,96.1,14,95.6,14z M89.9,4.7v15.4H93v-5.4h0c0.4,0.6,0.9,1,1.5,1.3
			c0.6,0.3,1.3,0.4,2,0.4c0.8,0,1.6-0.2,2.2-0.5c0.6-0.3,1.2-0.8,1.6-1.3c0.4-0.5,0.7-1.2,0.9-1.9c0.2-0.7,0.3-1.4,0.3-2.2
			c0-0.8-0.1-1.6-0.3-2.3c-0.2-0.7-0.5-1.4-0.9-2c-0.4-0.6-1-1-1.6-1.3c-0.6-0.3-1.4-0.5-2.3-0.5c-0.7,0-1.3,0.1-1.9,0.4
			c-0.6,0.3-1.1,0.7-1.5,1.3h0V4.7H89.9z"/>
		<path class="st2" d="M103.2,8.2c0-0.7,0.2-1.3,0.6-1.8c0.3-0.5,0.7-0.9,1.2-1.2c0.5-0.3,1.1-0.5,1.7-0.6c0.6-0.1,1.3-0.2,1.9-0.2
			c0.6,0,1.2,0,1.7,0.1c0.6,0.1,1.1,0.2,1.6,0.5s0.9,0.6,1.2,1c0.3,0.4,0.5,1,0.5,1.6v5.9c0,0.5,0,1,0.1,1.5
			c0.1,0.5,0.2,0.8,0.3,1.1h-3.2c-0.1-0.2-0.1-0.4-0.2-0.5c0-0.2-0.1-0.4-0.1-0.6c-0.5,0.5-1.1,0.9-1.8,1.1
			c-0.7,0.2-1.4,0.3-2.1,0.3c-0.5,0-1-0.1-1.5-0.2c-0.5-0.1-0.9-0.3-1.2-0.6c-0.4-0.3-0.6-0.6-0.8-1.1c-0.2-0.4-0.3-0.9-0.3-1.5
			c0-0.6,0.1-1.2,0.3-1.6c0.2-0.4,0.5-0.8,0.9-1c0.4-0.2,0.8-0.4,1.2-0.6c0.5-0.1,0.9-0.2,1.4-0.3c0.5-0.1,0.9-0.1,1.4-0.2
			c0.5,0,0.9-0.1,1.2-0.2c0.4-0.1,0.6-0.2,0.8-0.4c0.2-0.2,0.3-0.4,0.3-0.7c0-0.3-0.1-0.6-0.2-0.8c-0.1-0.2-0.2-0.4-0.4-0.5
			c-0.2-0.1-0.4-0.2-0.6-0.2c-0.2,0-0.5-0.1-0.8-0.1c-0.6,0-1.1,0.1-1.5,0.4c-0.4,0.3-0.6,0.7-0.6,1.3H103.2z M110.4,10.5
			c-0.1,0.1-0.3,0.2-0.5,0.3c-0.2,0.1-0.4,0.1-0.6,0.2c-0.2,0-0.5,0.1-0.7,0.1c-0.2,0-0.5,0.1-0.7,0.1c-0.2,0-0.5,0.1-0.7,0.2
			c-0.2,0.1-0.4,0.2-0.6,0.3c-0.2,0.1-0.3,0.3-0.4,0.5c-0.1,0.2-0.2,0.4-0.2,0.7c0,0.3,0.1,0.5,0.2,0.7c0.1,0.2,0.2,0.3,0.4,0.5
			c0.2,0.1,0.4,0.2,0.6,0.2c0.2,0,0.5,0.1,0.7,0.1c0.6,0,1.1-0.1,1.4-0.3c0.3-0.2,0.6-0.4,0.7-0.7c0.2-0.3,0.3-0.6,0.3-0.9
			c0-0.3,0.1-0.5,0.1-0.7V10.5z"/>
		<path class="st2" d="M116,4.7v11.4h3.1v-6c0-1.2,0.2-2,0.6-2.5c0.4-0.5,1-0.8,1.8-0.8c0.7,0,1.3,0.2,1.6,0.7
			c0.3,0.5,0.4,1.2,0.4,2.1v6.4h3.1v-7c0-0.7-0.1-1.3-0.2-1.9c-0.1-0.6-0.3-1.1-0.6-1.5c-0.3-0.4-0.7-0.7-1.3-0.9
			c-0.5-0.2-1.2-0.4-2-0.4c-0.7,0-1.3,0.2-1.9,0.5c-0.6,0.3-1.1,0.8-1.5,1.4h-0.1V4.7H116z"/>
		<path class="st2" d="M134.6,17.5l4.8-12.8h-3.2l-2.5,7.8h0L131,4.7h-3.3l4,10.7c0.1,0.2,0.1,0.5,0.1,0.7c0,0.3-0.1,0.6-0.3,0.9
			c-0.2,0.3-0.5,0.4-0.9,0.5c-0.3,0-0.6,0-0.9,0c-0.3,0-0.6-0.1-0.9-0.1V20c0.3,0,0.6,0.1,0.9,0.1c0.3,0,0.6,0,1,0
			c1.1,0,1.9-0.2,2.5-0.6C133.8,19.1,134.3,18.4,134.6,17.5z"/>
	</g>
</g>
</svg>
