<svg width="140" height="20" viewBox="0 0 140 20" fill="none" xmlns="http://www.w3.org/2000/svg">
<g clip-path="url(#clip0)">
<path d="M4.99413 3.27796V16.082H8.44813V3.27796H13.1561V0.373962H0.286133V3.27796H4.99413Z" fill="white" fill-opacity="0.5"/>
<path d="M14.6374 0.373962V16.082H17.7614V10.12C17.7614 8.9613 17.952 8.13263 18.3334 7.63396C18.7147 7.12063 19.3307 6.86396 20.1814 6.86396C20.9294 6.86396 21.45 7.09863 21.7434 7.56796C22.0367 8.02263 22.1834 8.7193 22.1834 9.65796V16.082H25.3074V9.08596C25.3074 8.38196 25.2414 7.74396 25.1094 7.17196C24.992 6.5853 24.7794 6.09396 24.4714 5.69796C24.1634 5.2873 23.738 4.97196 23.1954 4.75196C22.6674 4.5173 21.9854 4.39996 21.1494 4.39996C20.5627 4.39996 19.9614 4.55396 19.3454 4.86196C18.7294 5.1553 18.2234 5.63196 17.8274 6.29196H17.7614V0.373962H14.6374Z" fill="white" fill-opacity="0.5"/>
<path d="M35.3344 9.17396H30.2524C30.267 8.95396 30.311 8.70463 30.3844 8.42596C30.4724 8.1473 30.6117 7.8833 30.8024 7.63396C31.0077 7.38463 31.2717 7.1793 31.5944 7.01796C31.9317 6.84196 32.3497 6.75396 32.8484 6.75396C33.611 6.75396 34.1757 6.9593 34.5424 7.36996C34.9237 7.78063 35.1877 8.38196 35.3344 9.17396ZM30.2524 11.154H38.4584C38.517 10.274 38.4437 9.43063 38.2384 8.62396C38.033 7.8173 37.6957 7.09863 37.2264 6.46796C36.7717 5.8373 36.185 5.33863 35.4664 4.97196C34.7477 4.59063 33.9044 4.39996 32.9364 4.39996C32.071 4.39996 31.279 4.55396 30.5604 4.86196C29.8564 5.16996 29.2477 5.5953 28.7344 6.13796C28.221 6.66596 27.825 7.29663 27.5464 8.02996C27.2677 8.7633 27.1284 9.5553 27.1284 10.406C27.1284 11.286 27.2604 12.0926 27.5244 12.826C27.803 13.5593 28.1917 14.19 28.6904 14.718C29.189 15.246 29.7977 15.6566 30.5164 15.95C31.235 16.2286 32.0417 16.368 32.9364 16.368C34.227 16.368 35.327 16.0746 36.2364 15.488C37.1457 14.9013 37.8204 13.926 38.2604 12.562H35.5104C35.4077 12.914 35.129 13.2513 34.6744 13.574C34.2197 13.882 33.677 14.036 33.0464 14.036C32.1664 14.036 31.4917 13.8086 31.0224 13.354C30.553 12.8993 30.2964 12.166 30.2524 11.154Z" fill="white" fill-opacity="0.5"/>
<path d="M50.9899 5.654H54.3339C54.2313 4.74467 53.9819 3.938 53.5859 3.234C53.1899 2.53 52.6839 1.94333 52.0679 1.474C51.4666 0.99 50.7773 0.623333 49.9999 0.373999C49.2373 0.124666 48.4233 0 47.5579 0C46.3553 0 45.2699 0.212667 44.3019 0.638C43.3486 1.06333 42.5419 1.65 41.8819 2.398C41.2219 3.146 40.7159 4.026 40.3639 5.038C40.0119 6.03533 39.8359 7.12067 39.8359 8.294C39.8359 9.438 40.0119 10.5087 40.3639 11.506C40.7159 12.4887 41.2219 13.3467 41.8819 14.08C42.5419 14.8133 43.3486 15.3927 44.3019 15.818C45.2699 16.2287 46.3553 16.434 47.5579 16.434C48.5259 16.434 49.4133 16.2873 50.2199 15.994C51.0266 15.7007 51.7306 15.2753 52.3319 14.718C52.9333 14.1607 53.4173 13.486 53.7839 12.694C54.1506 11.902 54.3779 11.0147 54.4659 10.032H51.1219C50.9899 11.088 50.6233 11.9387 50.0219 12.584C49.4353 13.2293 48.6139 13.552 47.5579 13.552C46.7806 13.552 46.1206 13.4053 45.5779 13.112C45.0353 12.804 44.5953 12.4007 44.2579 11.902C43.9206 11.4033 43.6713 10.846 43.5099 10.23C43.3633 9.59933 43.2899 8.954 43.2899 8.294C43.2899 7.60467 43.3633 6.93733 43.5099 6.292C43.6713 5.64667 43.9206 5.07467 44.2579 4.576C44.5953 4.06267 45.0353 3.65933 45.5779 3.366C46.1206 3.058 46.7806 2.904 47.5579 2.904C47.9833 2.904 48.3866 2.97733 48.7679 3.124C49.1639 3.256 49.5159 3.44667 49.8239 3.696C50.1319 3.94533 50.3886 4.23867 50.5939 4.576C50.7993 4.89867 50.9313 5.258 50.9899 5.654Z" fill="white"/>
<path d="M59.2666 10.406C59.2666 9.95133 59.3106 9.504 59.3986 9.064C59.4866 8.624 59.6332 8.23533 59.8386 7.898C60.0586 7.56067 60.3446 7.28933 60.6966 7.084C61.0486 6.864 61.4886 6.754 62.0166 6.754C62.5446 6.754 62.9846 6.864 63.3366 7.084C63.7032 7.28933 63.9892 7.56067 64.1946 7.898C64.4146 8.23533 64.5686 8.624 64.6566 9.064C64.7446 9.504 64.7886 9.95133 64.7886 10.406C64.7886 10.8607 64.7446 11.308 64.6566 11.748C64.5686 12.1733 64.4146 12.562 64.1946 12.914C63.9892 13.2513 63.7032 13.5227 63.3366 13.728C62.9846 13.9333 62.5446 14.036 62.0166 14.036C61.4886 14.036 61.0486 13.9333 60.6966 13.728C60.3446 13.5227 60.0586 13.2513 59.8386 12.914C59.6332 12.562 59.4866 12.1733 59.3986 11.748C59.3106 11.308 59.2666 10.8607 59.2666 10.406ZM56.1426 10.406C56.1426 11.3153 56.2819 12.1367 56.5606 12.87C56.8392 13.6033 57.2352 14.234 57.7486 14.762C58.2619 15.2753 58.8779 15.6713 59.5966 15.95C60.3152 16.2287 61.1219 16.368 62.0166 16.368C62.9112 16.368 63.7179 16.2287 64.4366 15.95C65.1699 15.6713 65.7932 15.2753 66.3066 14.762C66.8199 14.234 67.2159 13.6033 67.4946 12.87C67.7732 12.1367 67.9126 11.3153 67.9126 10.406C67.9126 9.49667 67.7732 8.67533 67.4946 7.942C67.2159 7.194 66.8199 6.56333 66.3066 6.05C65.7932 5.522 65.1699 5.11867 64.4366 4.84C63.7179 4.54667 62.9112 4.4 62.0166 4.4C61.1219 4.4 60.3152 4.54667 59.5966 4.84C58.8779 5.11867 58.2619 5.522 57.7486 6.05C57.2352 6.56333 56.8392 7.194 56.5606 7.942C56.2819 8.67533 56.1426 9.49667 56.1426 10.406Z" fill="white"/>
<path d="M70.0318 4.708V16.082H73.1558V9.482C73.1558 8.92467 73.2365 8.47733 73.3978 8.14C73.5591 7.788 73.7498 7.524 73.9698 7.348C74.2045 7.15733 74.4391 7.03267 74.6738 6.974C74.9231 6.90067 75.1211 6.864 75.2678 6.864C75.7665 6.864 76.1405 6.952 76.3898 7.128C76.6538 7.28933 76.8371 7.50933 76.9398 7.788C77.0571 8.06667 77.1231 8.37467 77.1378 8.712C77.1525 9.03467 77.1598 9.36467 77.1598 9.702V16.082H80.2838V9.746C80.2838 9.394 80.3058 9.04933 80.3498 8.712C80.4085 8.36 80.5111 8.052 80.6578 7.788C80.8191 7.50933 81.0318 7.28933 81.2958 7.128C81.5745 6.952 81.9338 6.864 82.3738 6.864C82.8138 6.864 83.1585 6.93733 83.4078 7.084C83.6718 7.23067 83.8698 7.42867 84.0018 7.678C84.1338 7.92733 84.2145 8.22067 84.2438 8.558C84.2731 8.89533 84.2878 9.25467 84.2878 9.636V16.082H87.4118V8.47C87.4118 7.73667 87.3091 7.11333 87.1038 6.6C86.8985 6.072 86.6125 5.64667 86.2458 5.324C85.8791 5.00133 85.4391 4.76667 84.9258 4.62C84.4125 4.47333 83.8551 4.4 83.2538 4.4C82.4618 4.4 81.7725 4.59067 81.1858 4.972C80.6138 5.35333 80.1591 5.79333 79.8218 6.292C79.5138 5.588 79.0591 5.09667 78.4578 4.818C77.8711 4.53933 77.2185 4.4 76.4998 4.4C75.7518 4.4 75.0845 4.56133 74.4978 4.884C73.9258 5.20667 73.4345 5.66133 73.0238 6.248H72.9798V4.708H70.0318Z" fill="white"/>
<path d="M95.6233 14.036C95.1246 14.036 94.6993 13.9333 94.3473 13.728C93.9953 13.5227 93.7093 13.2587 93.4893 12.936C93.284 12.5987 93.13 12.21 93.0273 11.77C92.9393 11.33 92.8953 10.8827 92.8953 10.428C92.8953 9.95867 92.9393 9.504 93.0273 9.064C93.1153 8.624 93.262 8.23533 93.4673 7.898C93.6873 7.56067 93.966 7.28933 94.3033 7.084C94.6553 6.864 95.088 6.754 95.6013 6.754C96.1 6.754 96.518 6.864 96.8553 7.084C97.2073 7.28933 97.4933 7.568 97.7133 7.92C97.9333 8.25733 98.0873 8.646 98.1753 9.086C98.278 9.526 98.3293 9.97333 98.3293 10.428C98.3293 10.8827 98.2853 11.33 98.1973 11.77C98.1093 12.21 97.9553 12.5987 97.7353 12.936C97.53 13.2587 97.2513 13.5227 96.8993 13.728C96.562 13.9333 96.1366 14.036 95.6233 14.036ZM89.8813 4.708V20.064H93.0053V14.674H93.0493C93.4306 15.2313 93.9146 15.6567 94.5013 15.95C95.1026 16.2287 95.7553 16.368 96.4593 16.368C97.2953 16.368 98.0213 16.2067 98.6373 15.884C99.268 15.5613 99.7886 15.1287 100.199 14.586C100.625 14.0433 100.94 13.42 101.145 12.716C101.351 12.012 101.453 11.2787 101.453 10.516C101.453 9.70933 101.351 8.93933 101.145 8.206C100.94 7.458 100.625 6.80533 100.199 6.248C99.774 5.69067 99.2386 5.24333 98.5933 4.906C97.948 4.56867 97.178 4.4 96.2833 4.4C95.5793 4.4 94.934 4.53933 94.3473 4.818C93.7606 5.09667 93.2766 5.544 92.8953 6.16H92.8513V4.708H89.8813Z" fill="white"/>
<path d="M103.199 8.206C103.243 7.47267 103.426 6.864 103.749 6.38C104.071 5.896 104.482 5.50733 104.981 5.214C105.479 4.92067 106.037 4.71533 106.653 4.598C107.283 4.466 107.914 4.4 108.545 4.4C109.117 4.4 109.696 4.444 110.283 4.532C110.869 4.60533 111.405 4.75933 111.889 4.994C112.373 5.22867 112.769 5.55867 113.077 5.984C113.385 6.39467 113.539 6.94467 113.539 7.634V13.552C113.539 14.0653 113.568 14.5567 113.627 15.026C113.685 15.4953 113.788 15.8473 113.935 16.082H110.767C110.708 15.906 110.657 15.73 110.613 15.554C110.583 15.3633 110.561 15.1727 110.547 14.982C110.048 15.4953 109.461 15.8547 108.787 16.06C108.112 16.2653 107.423 16.368 106.719 16.368C106.176 16.368 105.67 16.302 105.201 16.17C104.731 16.038 104.321 15.8327 103.969 15.554C103.617 15.2753 103.338 14.9233 103.133 14.498C102.942 14.0727 102.847 13.5667 102.847 12.98C102.847 12.3347 102.957 11.8067 103.177 11.396C103.411 10.9707 103.705 10.6333 104.057 10.384C104.423 10.1347 104.834 9.95133 105.289 9.834C105.758 9.702 106.227 9.59933 106.697 9.526C107.166 9.45267 107.628 9.394 108.083 9.35C108.537 9.306 108.941 9.24 109.293 9.152C109.645 9.064 109.923 8.93933 110.129 8.778C110.334 8.602 110.429 8.35267 110.415 8.03C110.415 7.69267 110.356 7.42867 110.239 7.238C110.136 7.03267 109.989 6.87867 109.799 6.776C109.623 6.65867 109.41 6.58533 109.161 6.556C108.926 6.512 108.669 6.49 108.391 6.49C107.775 6.49 107.291 6.622 106.939 6.886C106.587 7.15 106.381 7.59 106.323 8.206H103.199ZM110.415 10.516C110.283 10.6333 110.114 10.7287 109.909 10.802C109.718 10.8607 109.505 10.912 109.271 10.956C109.051 11 108.816 11.0367 108.567 11.066C108.317 11.0953 108.068 11.132 107.819 11.176C107.584 11.22 107.349 11.2787 107.115 11.352C106.895 11.4253 106.697 11.528 106.521 11.66C106.359 11.7773 106.227 11.9313 106.125 12.122C106.022 12.3127 105.971 12.5547 105.971 12.848C105.971 13.1267 106.022 13.3613 106.125 13.552C106.227 13.7427 106.367 13.8967 106.543 14.014C106.719 14.1167 106.924 14.19 107.159 14.234C107.393 14.278 107.635 14.3 107.885 14.3C108.501 14.3 108.977 14.1973 109.315 13.992C109.652 13.7867 109.901 13.5447 110.063 13.266C110.224 12.9727 110.319 12.6793 110.349 12.386C110.393 12.0927 110.415 11.858 110.415 11.682V10.516Z" fill="white"/>
<path d="M115.963 4.708V16.082H119.087V10.12C119.087 8.96133 119.278 8.13267 119.659 7.634C120.041 7.12067 120.657 6.864 121.507 6.864C122.255 6.864 122.776 7.09867 123.069 7.568C123.363 8.02267 123.509 8.71933 123.509 9.658V16.082H126.633V9.086C126.633 8.382 126.567 7.744 126.435 7.172C126.318 6.58533 126.105 6.094 125.797 5.698C125.489 5.28733 125.064 4.972 124.521 4.752C123.993 4.51733 123.311 4.4 122.475 4.4C121.815 4.4 121.17 4.554 120.539 4.862C119.909 5.15533 119.395 5.632 118.999 6.292H118.933V4.708H115.963Z" fill="white"/>
<path d="M134.614 17.49L139.366 4.708H136.132L133.646 12.496H133.602L131.028 4.708H127.706L131.688 15.378C131.776 15.598 131.82 15.8327 131.82 16.082C131.82 16.4193 131.718 16.7273 131.512 17.006C131.322 17.2847 131.021 17.446 130.61 17.49C130.302 17.5047 129.994 17.4973 129.686 17.468C129.378 17.4387 129.078 17.4093 128.784 17.38V19.954C129.107 19.9833 129.422 20.0053 129.73 20.02C130.053 20.0493 130.376 20.064 130.698 20.064C131.769 20.064 132.605 19.866 133.206 19.47C133.808 19.074 134.277 18.414 134.614 17.49Z" fill="white"/>
</g>
<defs>
<clipPath id="clip0">
<rect width="140" height="20" fill="white"/>
</clipPath>
</defs>
</svg>
